# xmcd
#
# Track frame offsets:
#	150
#	16682
#	28772
#	48045
#	69350
#	84954
#	97190
#	114737
#	131840
#	151752
#
# Disc length: 2316 seconds
#
# Revision: 1
# Processed by: cddbd v1.4PL0 Copyright (c) Steve Scherf et al.
# Submitted via: audiograbber 1.82.02
#
DISCID=73090a0a
DTITLE=Col J Finley and No Boundary - Before The Storm
DYEAR=1900
DGENRE=
TTITLE0=Chute Three
TTITLE1=Sweet Love and Kisses
TTITLE2=I Believe
TTITLE3=IDOL
TTITLE4=Outlaw
TTITLE5=Poor Ned
TTITLE6=Don't Change Australia
TTITLE7=Say I Do
TTITLE8=Paradise
TTITLE9=Devil's Ride
EXTD=
EXTT0=
EXTT1=
EXTT2=
EXTT3=
EXTT4=
EXTT5=
EXTT6=
EXTT7=
EXTT8=
EXTT9=
PLAYORDER=
